# xmcd
#
# Track frame offsets:
#	150
#	11040
#	29034
#	45660
#	59756
#	79002
#	100827
#	116036
#	132500
#	152108
#	167467
#
# Disc length: 2452 seconds
#
# Revision: 0
# Processed by: cddbd v1.4PL0 Copyright (c) Steve Scherf et al.
# Submitted via: dBpowerAMP V4.0
#
DISCID=9309920b
DTITLE=The Oak Ridge Boys - An inconvenient Christmas
DYEAR=2001
DGENRE=Country
TTITLE0=Winter Wonderland
TTITLE1=I Pray on Chrsitmas
TTITLE2=A Christmas Love Song
TTITLE3=It Came Upon a Midnight Clear
TTITLE4=My Son
TTITLE5=Beautiful Star of Bethlehem
TTITLE6=The Most Inconvenient Christmas
TTITLE7=The Christmas Song
TTITLE8=Beneath the Christmas Tree
TTITLE9=Just a Simple Christmas Song
TTITLE10=The Hallelujah Chorus
EXTD=
EXTT0=
EXTT1=
EXTT2=
EXTT3=
EXTT4=
EXTT5=
EXTT6=
EXTT7=
EXTT8=
EXTT9=
EXTT10=
PLAYORDER=
